<svg xmlns="http://www.w3.org/2000/svg" version="1.1" xmlns:xlink="http://www.w3.org/1999/xlink" xmlns:svgjs="http://svgjs.dev/svgjs" width="1000" height="1000" viewBox="0 0 1000 1000"><rect width="1000" height="1000" fill="#102e44"></rect><g transform="matrix(0.7,0,0,0.7,149.57575757575756,282.1265587044535)"><svg viewBox="0 0 396 247" data-background-color="#102e44" preserveAspectRatio="xMidYMid meet" height="623" width="1000" xmlns="http://www.w3.org/2000/svg" xmlns:xlink="http://www.w3.org/1999/xlink"><g id="tight-bounds" transform="matrix(1,0,0,1,0.2400000000000091,-0.09999999999999432)"><svg viewBox="0 0 395.52 247.2" height="247.2" width="395.52"><g><svg></svg></g><g><svg viewBox="0 0 395.52 247.2" height="247.2" width="395.52"><g><path xmlns="http://www.w3.org/2000/svg" d="M55.039 247.2l26.403-45.732 1.6 0-25.559 44.27h280.554l-25.559-44.27 1.6 0 26.403 45.732zM197.76 0l26.403 45.732-1.6 0-24.803-42.961-24.803 42.961-1.6 0z" fill="#ffffff" fill-rule="nonzero" stroke="none" stroke-width="1" stroke-linecap="butt" stroke-linejoin="miter" stroke-miterlimit="10" stroke-dasharray="" stroke-dashoffset="0" font-family="none" font-weight="none" font-size="none" text-anchor="none" style="mix-blend-mode: normal" data-fill-palette-color="tertiary"></path></g><g transform="matrix(1,0,0,1,75.00750465745361,67.97999999999999)"><svg viewBox="0 0 245.50499068509276 111.24" height="111.24" width="245.50499068509276"><g><svg viewBox="0 0 397.4975999999999 180.10889677072834" height="111.24" width="245.50499068509276"><g><rect width="397.4975999999999" height="3.4267467092561743" x="0" y="96.47925138833946" fill="#ffffff" opacity="1" stroke-width="0" stroke="transparent" fill-opacity="1" class="rect-o-0" data-fill-palette-color="primary" rx="1%" id="o-0" data-palette-color="#ffffff"></rect></g><g><rect width="397.4975999999999" height="3.4267467092561743" x="0" y="104.39126865944928" fill="#ffffff" opacity="1" stroke-width="0" stroke="transparent" fill-opacity="1" class="rect-o-1" data-fill-palette-color="primary" rx="1%" id="o-1" data-palette-color="#ffffff"></rect></g><g transform="matrix(1,0,0,1,0.9887999999999693,116.78855649241272)"><svg viewBox="0 0 395.52 63.320340278315626" height="63.320340278315626" width="395.52"><g><svg viewBox="0 0 395.52 63.320340278315626" height="63.320340278315626" width="395.52"><g><svg viewBox="0 0 395.52 37.99853065837807" height="37.99853065837807" width="395.52"><g transform="matrix(1,0,0,1,0,0)"><svg width="395.52" viewBox="3 -33.5 353.8800048828125 34" height="37.99853065837807" data-palette-color="#ffffff"><path d="M17.6 0L3 0 3-0.8 7.05-2.8 7.05-30.2 3-32.2 3-33 16.45-33Q19.8-33 22.48-32.18 25.15-31.35 26.68-29.73 28.2-28.1 28.2-25.6L28.2-25.6Q28.2-23.05 26.45-20.93 24.7-18.8 21.4-17.9L21.4-17.9Q25.95-17.3 28.53-15.13 31.1-12.95 31.1-9.6L31.1-9.6Q31.1-6.85 29.35-4.67 27.6-2.5 24.55-1.25 21.5 0 17.6 0L17.6 0ZM15-30.25L15-30.25 12.3-30.25 12.3-18.35 15.25-18.35Q18.8-18.35 20.75-19.9 22.7-21.45 22.7-24.15L22.7-24.15Q22.7-30.25 15-30.25ZM16.85-15.7L16.85-15.7 12.3-15.7 12.3-2.75 17.2-2.75Q21.05-2.75 23.28-4.58 25.5-6.4 25.5-9.25L25.5-9.25Q25.5-12.6 23.25-14.15 21-15.7 16.85-15.7ZM53.5 0.5L53.5 0.5Q49.9 0.5 46.82-0.78 43.75-2.05 41.47-4.33 39.2-6.6 37.95-9.7 36.7-12.8 36.7-16.5L36.7-16.5Q36.7-20.2 37.95-23.3 39.2-26.4 41.47-28.68 43.75-30.95 46.82-32.23 49.9-33.5 53.5-33.5L53.5-33.5Q57.1-33.5 60.17-32.23 63.25-30.95 65.52-28.68 67.8-26.4 69.07-23.3 70.35-20.2 70.35-16.5L70.35-16.5Q70.35-12.8 69.07-9.7 67.8-6.6 65.52-4.33 63.25-2.05 60.17-0.78 57.1 0.5 53.5 0.5ZM54.5-2L54.5-2Q57.55-2 59.85-3.6 62.15-5.2 63.45-8.1 64.75-11 64.75-14.95L64.75-14.95Q64.75-19.8 63.15-23.43 61.55-27.05 58.8-29.05 56.05-31.05 52.7-31.05L52.7-31.05Q49.65-31.05 47.3-29.48 44.95-27.9 43.62-25 42.3-22.1 42.3-18.15L42.3-18.15Q42.3-13.3 43.92-9.65 45.55-6 48.32-4 51.1-2 54.5-2ZM93.65 0.5L93.65 0.5Q90.05 0.5 86.97-0.78 83.9-2.05 81.62-4.33 79.35-6.6 78.1-9.7 76.85-12.8 76.85-16.5L76.85-16.5Q76.85-20.2 78.1-23.3 79.35-26.4 81.62-28.68 83.9-30.95 86.97-32.23 90.05-33.5 93.65-33.5L93.65-33.5Q97.25-33.5 100.32-32.23 103.4-30.95 105.67-28.68 107.95-26.4 109.22-23.3 110.5-20.2 110.5-16.5L110.5-16.5Q110.5-12.8 109.22-9.7 107.95-6.6 105.67-4.33 103.4-2.05 100.32-0.78 97.25 0.5 93.65 0.5ZM94.65-2L94.65-2Q97.7-2 100-3.6 102.3-5.2 103.6-8.1 104.9-11 104.9-14.95L104.9-14.95Q104.9-19.8 103.3-23.43 101.7-27.05 98.95-29.05 96.2-31.05 92.85-31.05L92.85-31.05Q89.8-31.05 87.45-29.48 85.1-27.9 83.77-25 82.45-22.1 82.45-18.15L82.45-18.15Q82.45-13.3 84.07-9.65 85.7-6 88.47-4 91.25-2 94.65-2ZM130.09 0L116.74 0 116.74-0.8 120.79-2.8 120.79-30.2 116.74-32.2 116.74-33 130.09-33 130.09-32.2 126.04-30.2 126.04-2.8 130.09-0.8 130.09 0ZM141.54 0L126.04-16.85 139.84-30.5 136.29-32.2 136.29-33 147.09-33 147.09-32.2 143.94-30.95 131.14-18.4 146.54-2.15 149.69-0.8 149.69 0 141.54 0ZM166.89 0L153.54 0 153.54-0.8 157.64-2.8 157.64-30.2 153.54-32.2 153.54-33 166.89-33 166.89-32.2 162.84-30.2 162.84-2.8 166.89-0.8 166.89 0ZM185.59 0L172.89 0 172.89-0.8 176.94-2.8 176.94-30.1 172.94-32.2 172.94-33 180.79-33 199.94-9.45 199.94-30.25 194.79-32.2 194.79-33 207.44-33 207.44-32.2 203.44-30.25 203.44 0.25 201.29 0.25 180.44-25.35 180.44-2.75 185.59-0.8 185.59 0ZM230.29 0.5L230.29 0.5Q226.69 0.5 223.61-0.7 220.54-1.9 218.29-4.08 216.04-6.25 214.76-9.2 213.49-12.15 213.49-15.65L213.49-15.65Q213.49-19.5 214.91-22.75 216.34-26 218.84-28.43 221.34-30.85 224.59-32.18 227.84-33.5 231.54-33.5L231.54-33.5Q234.19-33.5 236.04-33.2 237.89-32.9 239.36-32.35 240.84-31.8 242.24-31.1L242.24-31.1 242.54-22.7 241.74-22.7 238.14-28.7Q236.19-30 234.79-30.5 233.39-31 231.54-31L231.54-31Q227.84-31 224.94-29.3 222.04-27.6 220.39-24.6 218.74-21.6 218.74-17.75L218.74-17.75Q218.74-12.9 220.49-9.45 222.24-6 225.16-4.17 228.09-2.35 231.74-2.35L231.74-2.35Q233.19-2.35 234.61-2.53 236.04-2.7 237.49-3.2L237.49-3.2 237.49-11.75 233.04-13.8 233.04-14.6 246.24-14.6 246.24-13.8 242.74-11.6 242.74-3.7Q241.24-2.4 239.14-1.48 237.04-0.55 234.74-0.03 232.44 0.5 230.29 0.5ZM278.58 0L263.98 0 263.98-0.8 268.03-2.8 268.03-30.2 263.98-32.2 263.98-33 277.43-33Q280.78-33 283.46-32.18 286.13-31.35 287.66-29.73 289.18-28.1 289.18-25.6L289.18-25.6Q289.18-23.05 287.43-20.93 285.68-18.8 282.38-17.9L282.38-17.9Q286.93-17.3 289.51-15.13 292.08-12.95 292.08-9.6L292.08-9.6Q292.08-6.85 290.33-4.67 288.58-2.5 285.53-1.25 282.48 0 278.58 0L278.58 0ZM275.98-30.25L275.98-30.25 273.28-30.25 273.28-18.35 276.23-18.35Q279.78-18.35 281.73-19.9 283.68-21.45 283.68-24.15L283.68-24.15Q283.68-30.25 275.98-30.25ZM277.83-15.7L277.83-15.7 273.28-15.7 273.28-2.75 278.18-2.75Q282.03-2.75 284.26-4.58 286.48-6.4 286.48-9.25L286.48-9.25Q286.48-12.6 284.23-14.15 281.98-15.7 277.83-15.7ZM323.93 0L297.43 0 297.43-0.8 301.48-2.8 301.48-30.2 297.43-32.2 297.43-33 322.53-33 322.53-24.4 321.73-24.4 318.48-30.25 306.73-30.25 306.73-18.4 315.03-18.4 317.58-22.6 318.38-22.6 318.38-11.55 317.58-11.55 315.03-15.65 306.73-15.65 306.73-2.75 319.83-2.75 323.13-9.35 323.93-9.35 323.93 0ZM356.88 0L330.38 0 330.38-0.8 334.43-2.8 334.43-30.2 330.38-32.2 330.38-33 355.48-33 355.48-24.4 354.68-24.4 351.43-30.25 339.68-30.25 339.68-18.4 347.98-18.4 350.53-22.6 351.33-22.6 351.33-11.55 350.53-11.55 347.98-15.65 339.68-15.65 339.68-2.75 352.78-2.75 356.08-9.35 356.88-9.35 356.88 0Z" opacity="1" transform="matrix(1,0,0,1,0,0)" fill="#ffffff" class="undefined-text-0" data-fill-palette-color="primary" id="text-0"></path></svg></g></svg></g><g transform="matrix(1,0,0,1,75.54432,46.96907178208534)"><svg viewBox="0 0 244.43135999999998 16.351268496230293" height="16.351268496230293" width="244.43135999999998"><g transform="matrix(1,0,0,1,0,0)"><svg width="244.43135999999998" viewBox="1.5 -39 729.4199829101562 48.79999923706055" height="16.351268496230293" data-palette-color="#ffffff"><path d="M18.9-3.8L23.6-8.2 23.35-12.95 18.7-17.2 11.7-15.9 10.9-15.25 10.6-4.45 11.8-3.5 18.9-3.8ZM12.3-31.45L10.4-30.8 10.8-20.55 11.35-19.55 18.45-21.1 22.7-24.85 19.55-31.55 12.3-31.45ZM25.45-16L27.6-7.7 21.5 0 7.15-0.3 7.15-0.3 1.75-0.35 1.5-2 7.1-2.95 6.25-31.7 1.95-33.15 1.6-34.8 7.35-34.8 7.4-34.8 14.4-35 22.3-34 26.55-23.9 21.6-18.65 25.45-16ZM44.55-22.55L39.45-22.95 35.05-17.25 36-7.4 41.55-2.15 45.3-2.2 50-11.4 47.9-20.05 44.55-22.55ZM37.85-26.3L46.25-26.3 51.55-21.4 53.55-9.95 46.5 1.1 39.5 1.4 32.15-7.45 31.6-18.85 37.85-26.3ZM69.5-22.55L64.39-22.95 60-17.25 60.95-7.4 66.5-2.15 70.25-2.2 74.95-11.4 72.84-20.05 69.5-22.55ZM62.8-26.3L71.2-26.3 76.5-21.4 78.5-9.95 71.45 1.1 64.45 1.4 57.09-7.45 56.55-18.85 62.8-26.3ZM101.04-3.85L104.29-1.8 102.24 1.45 98.04-1.15 91.09-12.25 88.89-11.15 88.89-2.05 92.69-0.95 92.99 0.45 83.04 0.7 82.84-0.8 85.24-1.8 84.24-33.1 81.49-33.85 81.59-35.2 92.34-35.45 92.19-33.5 88.79-32.75 88.89-13.7 90.89-14.45 94.94-19.8 98.34-26.05 101.24-25.15 97.44-18 93.94-13.3 101.04-3.85ZM132.99-0.75L133.19 0.65 123.19 0.75 122.94-0.7 125.59-1.75 125.79-22.9 122.14-24.15 121.79-25.4 132.19-26 132.69-25 129.64-23.3 129.44-1.8 132.99-0.75ZM130.14-30.8L126.34-29.2 124.64-32.6 126.69-34.55 129.89-34.15 130.14-30.8ZM164.09-6.6L166.74-3.55 158.38 0.65 155.38-0.9 155.38-16.1 153.84-20.65 150.03-21.05 144.28-12.7 144.28-2.45 146.99-1.65 146.59 0.25 137.49-0.15 137.09-1.25 139.74-2.45 139.74-20.65 136.38-22.55 138.99-26 143.59-21.05 144.28-16.45 149.28-24.45 155.74-24.1 159.53-17.25 158.74-3.9 159.53-3.2 164.09-6.6ZM186.23-24.7L194.48-26.1 200.08-23.8 202.08-25.75 204.23-24.25 200.43-19.15 198.63-20.85 190.43-22.8 187.78-19.7 191.23-14.85 201.28-12.35 202.68-3.85 196.08 0.25 187.28-1.75 186.08 0.3 183.58-0.15 185.28-5.4 195.48-3 198.63-5.35 197.43-9.55 186.73-13.2 183.83-19.15 186.23-24.7ZM212.48-13.2L212.53-13.4 224.23-15.25 222.83-21.8 219.48-23.05 212.93-20.85 212.48-13.2ZM215.63-25.7L222.68-25.15 226.68-21.65 228.13-13.05 212.48-10.55 215.18-2.6 221.08-2.75 228.08-4.85 228.48-0.9 214.38 1.1 208.23-8 208.93-20.85 215.63-25.7ZM250.28-4.1L251.48-0.2 243.73 0.2 233.98-3 233.58-15.35 237.83-23.9 244.88-26.3 250.28-23.2 247.58-16.15 246.03-16.95 247.58-21.6 245.63-23.2 245.63-23.2 239.78-20.45 237.08-14.25 237.83-5.3 243.73-3 250.28-4.1ZM266.92-22.55L261.82-22.95 257.42-17.25 258.37-7.4 263.92-2.15 267.67-2.2 272.37-11.4 270.27-20.05 266.92-22.55ZM260.22-26.3L268.62-26.3 273.92-21.4 275.92-9.95 268.87 1.1 261.87 1.4 254.52-7.45 253.97-18.85 260.22-26.3ZM307.32-6.6L309.97-3.55 301.62 0.65 298.62-0.9 298.62-16.1 297.07-20.65 293.27-21.05 287.52-12.7 287.52-2.45 290.22-1.65 289.82 0.25 280.72-0.15 280.32-1.25 282.97-2.45 282.97-20.65 279.62-22.55 282.22-26 286.82-21.05 287.52-16.45 292.52-24.45 298.97-24.1 302.77-17.25 301.97-3.9 302.77-3.2 307.32-6.6ZM326.97-9.1L327.22-19.95 321.37-22.15 316.02-20.4 314.72-10.6 319.17-3.25 322.02-3.9 326.97-9.1ZM336.82-0.9L328.82-0.25 326.77-4.8 323.47-0.35 315.87-0.8 310.82-10.9 313.82-22.6 321.07-25.5 327.77-22.75 328.02-35.25 331.17-39 333.97-36.7 331.87-34.95 331.02-3.1 335.82-4 336.82-0.9ZM340.96-24.7L349.21-26.1 354.81-23.8 356.81-25.75 358.96-24.25 355.17-19.15 353.37-20.85 345.17-22.8 342.51-19.7 345.96-14.85 356.01-12.35 357.42-3.85 350.81 0.25 342.01-1.75 340.81 0.3 338.31-0.15 340.01-5.4 350.21-3 353.37-5.35 352.17-9.55 341.46-13.2 338.56-19.15 340.96-24.7ZM362.36-4.5L365.81-6 368.91-3.4 367.21 1.1 363.61 5.6 361.96 5.2 365.41 0.25 363.01-0.2 362.36-4.5ZM393.16-13.2L393.21-13.4 404.91-15.25 403.51-21.8 400.16-23.05 393.61-20.85 393.16-13.2ZM396.31-25.7L403.36-25.15 407.36-21.65 408.81-13.05 393.16-10.55 395.86-2.6 401.76-2.75 408.76-4.85 409.16-0.9 395.06 1.1 388.91-8 389.61-20.85 396.31-25.7ZM441.55-6.6L444.2-3.55 435.85 0.65 432.85-0.9 432.85-16.1 431.3-20.65 427.5-21.05 421.75-12.7 421.75-2.45 424.45-1.65 424.05 0.25 414.95-0.15 414.55-1.25 417.2-2.45 417.2-20.65 413.85-22.55 416.45-26 421.05-21.05 421.75-16.45 426.75-24.45 433.2-24.1 437-17.25 436.2-3.9 437-3.2 441.55-6.6ZM456.45-24.7L453.15-22.9 452.75-0.4 450.3 5.15 440.3 8.95 440.05 5.4 447.65 3.2 449.1-3.25 448.85-23.05 446.2-23.9 445.85-25.2 456.05-25.75 456.45-24.7ZM453.75-32.85L450.85-28.95 448.2-31.6 449.1-34.95 452.3-34.95 453.75-32.85ZM471.9-22.55L466.8-22.95 462.4-17.25 463.35-7.4 468.9-2.15 472.65-2.2 477.35-11.4 475.25-20.05 471.9-22.55ZM465.2-26.3L473.6-26.3 478.9-21.4 480.9-9.95 473.85 1.1 466.85 1.4 459.5-7.45 458.95-18.85 465.2-26.3ZM507.85-24.2L505.1-23.2 494.5 7.35 488.75 9.8 482.5 6.55 483.85 3.25 489.1 6.55 491.85 5.8 493.3 1.7 494.6-2.7 492-1.3 485.25-22.2 483-22.4 482.4-24.5 488.95-25.1 491.2-14.75 495-3.8 501.2-23.4 498.9-24.1 498.95-25.4 507.55-25.45 507.85-24.2ZM535.34-32.9L532.89-29.65 532.84-24.35 539.69-25.3 539.99-22.65 532.89-21.9 533.69-2.6 536.59-2.55 537.39-0.15 527.54-0.3 527.29-1.95 529.69-2.3 529.24-19.1 529.29-21.05 525.84-21.5 525.99-23.3 528.99-24.25 529.04-30.7 533.99-36.05 542.04-34.75 541.19-32 535.34-32.9ZM556.49-22.55L551.39-22.95 546.99-17.25 547.94-7.4 553.49-2.15 557.24-2.2 561.94-11.4 559.84-20.05 556.49-22.55ZM549.79-26.3L558.19-26.3 563.49-21.4 565.49-9.95 558.44 1.1 551.44 1.4 544.09-7.45 543.54-18.85 549.79-26.3ZM583.19-24.8L586.74-20.6 583.69-18 581.04-21.85 576.99-20.5 575.79-17.85 575.99-2.85 578.94-1.9 578.64-0.15 569.79-0.15 569.64-1.5 571.99-2.45 571.94-22.45 569.49-23.85 571.64-26.6 575.29-24.25 575.59-22.55 578.14-23.55 583.19-24.8ZM631.38-7L634.08-4.65 628.23 1.35 624.03-0.5 623.48-17.95 620.03-21.8 612.93-15.25 612.93-2.3 616.58-1.2 616.88 0.25 607.13 0.3 606.83-1.2 608.73-1.95 609.48-31.55 606.23-34.4 609.98-36.95 613.23-31.8 612.68-18.6 617.93-25.7 624.53-23.75 627.58-18.1 626.88-2.2 627.93-1.5 631.38-7ZM647.53-22.55L642.43-22.95 638.03-17.25 638.98-7.4 644.53-2.15 648.28-2.2 652.98-11.4 650.88-20.05 647.53-22.55ZM640.83-26.3L649.23-26.3 654.53-21.4 656.53-9.95 649.48 1.1 642.48 1.4 635.13-7.45 634.58-18.85 640.83-26.3ZM686.83-6.5L689.03-2.7 681.68 0.8 678.88 0.05 677.98-2.85 677.33-6.3 668.48 0.75 663.28-1.05 661.78-6.95 661.63-22.35 659.53-23.25 659.68-24.45 668.63-24.65 668.38-22.85 665.78-21.8 665.78-7.7 667.63-3.25 670.88-5.05 676.93-8.4 677.73-22.3 675.53-23.3 675.68-24.65 683.58-24.65 683.83-22.95 681.23-21.95 681.08-3.4 681.83-2.15 686.83-6.5ZM704.22-24.8L707.77-20.6 704.72-18 702.07-21.85 698.02-20.5 696.82-17.85 697.02-2.85 699.97-1.9 699.67-0.15 690.82-0.15 690.67-1.5 693.02-2.45 692.97-22.45 690.52-23.85 692.67-26.6 696.32-24.25 696.62-22.55 699.17-23.55 704.22-24.8ZM712.92-24.7L721.17-26.1 726.77-23.8 728.77-25.75 730.92-24.25 727.12-19.15 725.32-20.85 717.12-22.8 714.47-19.7 717.92-14.85 727.97-12.35 729.37-3.85 722.77 0.25 713.97-1.75 712.77 0.3 710.27-0.15 711.97-5.4 722.17-3 725.32-5.35 724.12-9.55 713.42-13.2 710.52-19.15 712.92-24.7Z" opacity="1" transform="matrix(1,0,0,1,0,0)" fill="#ffffff" class="undefined-text-1" data-fill-palette-color="secondary" id="text-1"></path></svg></g></svg></g></svg></g></svg></g><g transform="matrix(1,0,0,1,154.99444486768385,0)"><svg viewBox="0 0 87.5087102646322 87.5087102646322" height="87.5087102646322" width="87.5087102646322"><g><svg xmlns:x="http://ns.adobe.com/Extensibility/1.0/" xmlns:i="http://ns.adobe.com/AdobeIllustrator/10.0/" xmlns:graph="http://ns.adobe.com/Graphs/1.0/" xmlns="http://www.w3.org/2000/svg" xmlns:xlink="http://www.w3.org/1999/xlink" version="1.1" x="0" y="0" viewBox="7 7 50 50" enable-background="new 0 0 64 64" xml:space="preserve" height="87.5087102646322" width="87.5087102646322" class="icon-icon-0" data-fill-palette-color="accent" id="icon-0"><g fill="#b2fcfb" data-fill-palette-color="accent"><path d="M53.669 44.444C55.783 40.776 57 36.529 57 32c0-4.528-1.217-8.775-3.33-12.443-0.01-0.019-0.009-0.039-0.02-0.057s-0.028-0.027-0.039-0.044c-2.186-3.75-5.316-6.881-9.066-9.066-0.018-0.011-0.027-0.029-0.045-0.04-0.019-0.011-0.039-0.01-0.058-0.019C40.775 8.216 36.528 7 32 7c-4.527 0-8.774 1.216-12.44 3.329-0.02 0.01-0.041 0.009-0.06 0.02-0.019 0.011-0.028 0.029-0.046 0.041-3.75 2.186-6.88 5.316-9.065 9.065-0.011 0.017-0.029 0.027-0.04 0.045-0.011 0.018-0.01 0.039-0.019 0.057C8.216 23.225 7 27.472 7 32c0 4.527 1.216 8.774 3.329 12.44 0.01 0.02 0.009 0.041 0.02 0.06 0.016 0.027 0.038 0.047 0.056 0.072 2.185 3.737 5.31 6.858 9.051 9.039 0.017 0.011 0.026 0.028 0.044 0.039 0.027 0.016 0.056 0.021 0.084 0.034C23.245 55.789 27.482 57 32 57s8.755-1.211 12.416-3.315c0.027-0.013 0.057-0.019 0.084-0.034 0.018-0.011 0.027-0.028 0.045-0.039 3.743-2.182 6.869-5.305 9.055-9.046 0.016-0.023 0.036-0.042 0.051-0.066C53.66 44.481 53.66 44.462 53.669 44.444zM44.35 51.389l-1.483-2.568c-0.277-0.479-0.89-0.643-1.366-0.366-0.479 0.276-0.643 0.888-0.366 1.366l1.485 2.572c-2.901 1.517-6.161 2.434-9.619 2.582V52c0-0.553-0.448-1-1-1s-1 0.447-1 1v2.975c-3.458-0.148-6.718-1.066-9.619-2.583l1.486-2.571c0.276-0.478 0.113-1.09-0.366-1.366-0.478-0.276-1.09-0.113-1.366 0.366l-1.484 2.568c-2.827-1.807-5.233-4.213-7.04-7.04l2.568-1.482c0.479-0.276 0.642-0.888 0.366-1.366-0.277-0.479-0.888-0.643-1.366-0.366l-2.572 1.484c-1.517-2.9-2.434-6.16-2.583-9.618H12c0.552 0 1-0.448 1-1s-0.448-1-1-1H9.025c0.149-3.458 1.066-6.718 2.583-9.619l2.572 1.485C14.337 22.957 14.509 23 14.679 23c0.346 0 0.682-0.179 0.867-0.5 0.276-0.478 0.112-1.09-0.366-1.366l-2.568-1.483c1.807-2.827 4.213-5.232 7.04-7.04l1.482 2.568c0.186 0.321 0.521 0.5 0.867 0.5 0.169 0 0.341-0.043 0.499-0.134 0.478-0.276 0.642-0.888 0.366-1.366l-1.485-2.572c2.901-1.517 6.161-2.434 9.619-2.583V12c0 0.552 0.448 1 1 1s1-0.448 1-1V9.025c3.458 0.149 6.718 1.066 9.619 2.583l-1.485 2.572c-0.276 0.478-0.112 1.09 0.366 1.366 0.157 0.091 0.329 0.134 0.499 0.134 0.346 0 0.682-0.179 0.867-0.5l1.482-2.568c2.827 1.807 5.233 4.213 7.04 7.04l-2.568 1.483c-0.479 0.276-0.643 0.888-0.366 1.366 0.186 0.321 0.521 0.5 0.867 0.5 0.17 0 0.342-0.043 0.499-0.134l2.571-1.485c1.517 2.901 2.435 6.161 2.583 9.619H52c-0.553 0-1 0.448-1 1s0.447 1 1 1h2.975c-0.148 3.458-1.065 6.718-2.582 9.618l-2.572-1.484c-0.479-0.275-1.09-0.111-1.366 0.366-0.276 0.479-0.112 1.09 0.366 1.366l2.568 1.482C49.582 47.176 47.176 49.582 44.35 51.389z" fill="#b2fcfb" data-fill-palette-color="accent"></path></g></svg></g></svg></g><g></g></svg></g></svg></g></svg></g><defs></defs></svg><rect width="395.52" height="247.2" fill="none" stroke="none" visibility="hidden"></rect></g></svg></g></svg>